<svg width="15" height="31" viewBox="0 0 15 31" fill="none" xmlns="http://www.w3.org/2000/svg">
<path fill-rule="evenodd" clip-rule="evenodd" d="M11.7177 9.603C12.2902 10.2161 12.4991 11.0776 12.4008 11.9104C12.2582 13.1193 11.9205 14.2513 11.5243 15.3923C11.1004 16.6133 10.6703 17.8318 10.2379 19.0496C9.54628 20.9981 8.84924 22.9445 8.16524 24.896C7.99528 25.3806 7.87407 25.8982 7.82567 26.4102C7.77292 26.9677 8.16102 27.2421 8.6483 26.9947C9.03856 26.7965 9.41843 26.5266 9.724 26.2073C10.2233 25.6857 10.7203 25.1615 11.2053 24.6254C11.4478 24.3573 11.6875 24.0861 11.9227 23.811C12.1101 23.5917 12.3027 23.2617 12.5599 23.1283C13.0469 22.8758 13.4228 23.4972 13.3346 23.9323C13.2504 24.3484 12.9731 24.7135 12.718 25.0457L12.7005 25.0685C12.6773 25.0986 12.6542 25.1288 12.6312 25.159C11.7739 26.2859 10.8337 27.3724 9.76707 28.2909C8.71858 29.1913 7.55446 29.9574 6.276 30.4541C5.8596 30.6158 5.43292 30.7488 4.99924 30.8507C4.16197 31.0475 3.23677 31.0329 2.38111 30.9045C1.75375 30.8104 1.18977 30.3969 0.923862 29.7952C0.462237 28.7506 0.78355 27.4606 1.02222 26.3973C1.3146 25.0955 1.75347 23.8561 2.2018 22.6092L2.23586 22.5144L2.25292 22.4671L2.28702 22.3723L2.32111 22.2775C2.84071 20.8321 3.3748 19.3926 3.9106 17.9537C4.39957 16.6411 4.8906 15.3294 5.3745 14.0149C5.41144 13.9145 5.45269 13.8148 5.49433 13.7152L5.50996 13.6779C5.61675 13.4227 5.72294 13.1674 5.76271 12.9014C5.85816 12.2631 5.41261 11.6947 4.79419 12.0627C3.72513 12.6988 2.92456 13.6448 2.13111 14.5967L2.03463 14.7124C1.78807 15.0083 1.54116 15.3035 1.28606 15.5889C1.03467 15.8704 0.735393 16.2193 0.303143 15.8968C-0.158122 15.5528 -0.0213098 15.1116 0.240846 14.7378C1.69678 12.6618 3.44485 10.7198 5.72303 9.62308C6.6751 9.16477 8.00605 8.69817 9.25244 8.68286C10.1868 8.67145 11.0737 8.91357 11.7177 9.603ZM13.1558 0.239385C14.3542 0.721273 15.0001 1.79799 15 3.31383C14.9999 6.04552 12.1444 7.9139 9.75735 6.74409C8.52366 6.13949 7.92363 4.70645 8.22267 3.07895C8.63664 0.825026 11.0942 -0.589429 13.1558 0.239385Z" fill="white"/>
</svg>
