<svg width="33" height="33" viewBox="0 0 33 33" fill="none" xmlns="http://www.w3.org/2000/svg">
<path d="M16.3782 2.97805C19.0285 2.97805 21.6193 3.76395 23.8229 5.23636C26.0265 6.70877 27.744 8.80156 28.7582 11.2501C29.7724 13.6986 30.0378 16.3929 29.5208 18.9923C29.0037 21.5916 27.7275 23.9793 25.8535 25.8533C23.9794 27.7273 21.5918 29.0035 18.9924 29.5206C16.3931 30.0376 13.6988 29.7723 11.2503 28.758C8.80175 27.7438 6.70896 26.0263 5.23655 23.8227C3.76413 21.6191 2.97824 19.0283 2.97824 16.3781C2.97824 12.8242 4.39002 9.41581 6.90301 6.90282C9.41599 4.38983 12.8243 2.97805 16.3782 2.97805ZM16.3782 5.13251e-05C12.6104 0.0169617 8.96475 1.3387 6.06152 3.74041C3.15828 6.14212 1.17676 9.47547 0.454048 13.1734C-0.268668 16.8713 0.312057 20.7054 2.09743 24.0235C3.88281 27.3415 6.76256 29.9386 10.2468 31.3728C13.731 32.8071 17.6046 32.9899 21.2084 31.8903C24.8123 30.7907 27.9239 28.4765 30.0139 25.3414C32.1039 22.2063 33.0433 18.4439 32.6721 14.6943C32.301 10.9448 30.6423 7.43958 27.9782 4.77505C26.4533 3.25592 24.6439 2.05228 22.6535 1.23295C20.6631 0.413613 18.5307 -0.00533714 16.3782 5.13251e-05Z" fill="white"/>
<path d="M23.3013 8.41233L13.4013 13.4003L8.4133 23.3003C8.36297 23.4456 8.35454 23.6021 8.38898 23.7519C8.42342 23.9018 8.49933 24.0389 8.60804 24.1476C8.71675 24.2563 8.85387 24.3322 9.0037 24.3666C9.15353 24.4011 9.31003 24.3927 9.4553 24.3423L19.3553 19.3543L24.3433 9.45432C24.3936 9.30906 24.4021 9.15256 24.3676 9.00272C24.3332 8.85289 24.2573 8.71578 24.1486 8.60707C24.0398 8.49836 23.9027 8.42244 23.7529 8.388C23.6031 8.35356 23.4466 8.36199 23.3013 8.41233ZM16.3783 17.8673C16.0838 17.8673 15.7959 17.78 15.5511 17.6164C15.3062 17.4528 15.1153 17.2202 15.0026 16.9481C14.8899 16.6761 14.8605 16.3767 14.9179 16.0878C14.9754 15.799 15.1172 15.5337 15.3254 15.3254C15.5337 15.1172 15.799 14.9754 16.0878 14.9179C16.3766 14.8605 16.676 14.89 16.9481 15.0027C17.2202 15.1154 17.4527 15.3062 17.6164 15.5511C17.78 15.7959 17.8673 16.0838 17.8673 16.3783C17.8673 16.7732 17.7104 17.152 17.4312 17.4312C17.1519 17.7104 16.7732 17.8673 16.3783 17.8673Z" fill="white"/>
</svg>
