<svg
          id="Group_169"
          data-name="Group 169"
          xmlns="http://www.w3.org/2000/svg"
          width="163.547"
          height="87.424"
          viewBox="0 0 163.547 87.424"
        >
          <g id="Group_81" data-name="Group 81">
            <path
              id="Path_69"
              data-name="Path 69"
              d="M371.65,267.754l9.555-5.7h0l9.553,5.7a12.4,12.4,0,0,1,5.4,9.678v12.4c21.842-2.78,36.675-8.364,36.675-8.364s-33.493-26.086-78.657-32.95-84.89,8.1-84.89,8.1a176.026,176.026,0,0,0,30.243,17.816,13.02,13.02,0,0,1,4.9-6.679l9.555-5.7h0l9.553,5.7a12.39,12.39,0,0,1,5.406,9.678v8.026q1.829.513,3.7.989v-9.015a12.4,12.4,0,0,1,5.406-9.678l9.554-5.7h0l9.552,5.7a12.39,12.39,0,0,1,5.406,9.678v13.652q1.849.107,3.677.171V277.432A12.39,12.39,0,0,1,371.65,267.754Z"
              transform="translate(-269.291 -246.717)"
              fill="#fff"
            ></path>
          </g>
          <g
            id="Group_84"
            data-name="Group 84"
            transform="translate(14.932 59.795)"
          >
            <g id="Group_82" data-name="Group 82" transform="translate(0)">
              <path
                id="Path_70"
                data-name="Path 70"
                d="M342.332,526.326a.927.927,0,0,0,.621-.225.763.763,0,0,0,.264-.613.79.79,0,0,0-.256-.6.943.943,0,0,0-1.258,0,.789.789,0,0,0-.256.6.763.763,0,0,0,.264.613A.929.929,0,0,0,342.332,526.326Z"
                transform="translate(-338.278 -514.725)"
                fill="#fff"
              ></path>
              <path
                id="Path_71"
                data-name="Path 71"
                d="M342.332,514.565a.926.926,0,0,0,.621-.226.762.762,0,0,0,.264-.613.787.787,0,0,0-.256-.6.943.943,0,0,0-1.258,0,.787.787,0,0,0-.256.6.762.762,0,0,0,.264.613A.928.928,0,0,0,342.332,514.565Z"
                transform="translate(-338.278 -505.914)"
                fill="#fff"
              ></path>
              <path
                id="Path_72"
                data-name="Path 72"
                d="M394.717,489.736a.928.928,0,0,0,.621-.225.766.766,0,0,0,.264-.614.782.782,0,0,0-.256-.6.942.942,0,0,0-1.257,0,.783.783,0,0,0-.256.6.766.766,0,0,0,.264.614A.927.927,0,0,0,394.717,489.736Z"
                transform="translate(-377.523 -487.313)"
                fill="#fff"
              ></path>
              <path
                id="Path_73"
                data-name="Path 73"
                d="M359.416,491.283a3,3,0,0,0-1.1-.8,4.041,4.041,0,0,0-1.545-.256h-5.483v-5.14H350.05v11.353H346.7v-7.191h-1.243v7.191h-3.463v-7.191h-2.765a3.7,3.7,0,0,0-2.423.73,2.939,2.939,0,0,0-.83,1.141,4.124,4.124,0,0,0-.256,1.53v5.731H332.1q-.358,0-.683-.031a3.93,3.93,0,0,1-.644-.116,6.856,6.856,0,0,1-.661-.217,7.3,7.3,0,0,1-.73-.334l-.558,1.1a7.072,7.072,0,0,0,.846.389,6.707,6.707,0,0,0,.847.256,7.16,7.16,0,0,0,.916.147q.482.047,1.071.047h4.458v-7.176a1.9,1.9,0,0,1,.7-1.491,1.732,1.732,0,0,1,.691-.365,3.472,3.472,0,0,1,.893-.1h1.507v7.191h19.43v-3.93a4.71,4.71,0,0,0-.2-1.429A2.856,2.856,0,0,0,359.416,491.283Zm-.481,5.156h-7.642v-4.97h5.483a2.58,2.58,0,0,1,1.009.178,1.82,1.82,0,0,1,.684.489,1.749,1.749,0,0,1,.364.714,3.737,3.737,0,0,1,.1.9Z"
                transform="translate(-328.818 -485.086)"
                fill="#fff"
              ></path>
              <path
                id="Path_74"
                data-name="Path 74"
                d="M472.426,496.439h-3.665v-7.191h-1.988a6.406,6.406,0,0,0-2.1.327,5.058,5.058,0,0,0-1.623.893A3.978,3.978,0,0,0,462,491.819a3.909,3.909,0,0,0-.372,1.7,4.02,4.02,0,0,0,.411,1.888,3.628,3.628,0,0,0,1.118,1.288,4.9,4.9,0,0,0,1.638.746,7.869,7.869,0,0,0,1.973.241h.745v.358a1.635,1.635,0,0,1-.559,1.4,2.572,2.572,0,0,1-1.568.419,4.487,4.487,0,0,1-1.033-.109,6.039,6.039,0,0,1-1.048-.372l-.389,1.2a11.272,11.272,0,0,0,1.266.4,4.758,4.758,0,0,0,1.11.133,3.512,3.512,0,0,0,2.641-.863,3.224,3.224,0,0,0,.824-2.322v-.233h4.907v-12.6h-1.243Zm-4.908,0H466.26a4.325,4.325,0,0,1-1.312-.194,3.308,3.308,0,0,1-1.08-.567,2.627,2.627,0,0,1-.73-.916,2.808,2.808,0,0,1-.264-1.243,2.637,2.637,0,0,1,.288-1.226,3.039,3.039,0,0,1,.761-.955,3.522,3.522,0,0,1,1.079-.614,3.706,3.706,0,0,1,1.258-.217h1.258Z"
                transform="translate(-428.315 -485.086)"
                fill="#fff"
              ></path>
              <rect
                id="Rectangle_32"
                data-name="Rectangle 32"
                width="1.243"
                height="12.596"
                transform="translate(48.91 0)"
                fill="#fff"
              ></rect>
              <path
                id="Path_75"
                data-name="Path 75"
                d="M643.711,489.873a.874.874,0,0,0,.605-.225.768.768,0,0,0,.248-.6.759.759,0,0,0-.248-.575.9.9,0,0,0-1.212,0,.759.759,0,0,0-.249.575.768.768,0,0,0,.249.6A.874.874,0,0,0,643.711,489.873Z"
                transform="translate(-564.079 -487.45)"
                fill="#fff"
              ></path>
              <path
                id="Path_76"
                data-name="Path 76"
                d="M655.662,489.873a.9.9,0,0,0,.613-.225.808.808,0,0,0,.008-1.174.873.873,0,0,0-.621-.233.852.852,0,0,0-.605.233.759.759,0,0,0-.249.575.768.768,0,0,0,.249.6A.87.87,0,0,0,655.662,489.873Z"
                transform="translate(-573.033 -487.45)"
                fill="#fff"
              ></path>
              <path
                id="Path_77"
                data-name="Path 77"
                d="M578.72,489.567a4.683,4.683,0,0,0-1.568.877,3.68,3.68,0,0,0-.979,1.328,4.182,4.182,0,0,0-.334,1.685,3.563,3.563,0,0,0,.4,1.754,4.283,4.283,0,0,0,.993,1.227h-4.364v-2.687a4.714,4.714,0,0,0-.2-1.429,2.865,2.865,0,0,0-.558-1.04,3.007,3.007,0,0,0-1.1-.8,4.041,4.041,0,0,0-1.545-.256h-5.483v-5.14h-1.243v11.353h-3.371v-7.191h-1.243v8.7a6.078,6.078,0,0,1-.055.893,1.647,1.647,0,0,1-.186.591.78.78,0,0,1-.356.325,1.425,1.425,0,0,1-.583.1,2.5,2.5,0,0,1-.3-.016,2.408,2.408,0,0,1-.341-.078l-.327,1.2a3.81,3.81,0,0,0,1.01.14,2.614,2.614,0,0,0,1.126-.217,1.825,1.825,0,0,0,.738-.63,2.675,2.675,0,0,0,.4-.994,6.684,6.684,0,0,0,.117-1.312v-.264h23.562v-8.434h-2.1A6.514,6.514,0,0,0,578.72,489.567Zm-7.089,6.873h-7.642v-4.97h5.483a2.581,2.581,0,0,1,1.009.178,1.82,1.82,0,0,1,.684.489,1.752,1.752,0,0,1,.365.714,3.739,3.739,0,0,1,.1.9Zm10.064,0h-2.719a3.994,3.994,0,0,1-1.366-1.227,3,3,0,0,1-.528-1.754,2.713,2.713,0,0,1,.272-1.219,2.921,2.921,0,0,1,.722-.94,3.266,3.266,0,0,1,1.033-.6,3.574,3.574,0,0,1,1.218-.209h1.368Z"
                transform="translate(-499.004 -485.086)"
                fill="#fff"
              ></path>
              <path
                id="Path_78"
                data-name="Path 78"
                d="M732.224,489.736a.929.929,0,0,0,.621-.225.766.766,0,0,0,.264-.614.782.782,0,0,0-.256-.6.941.941,0,0,0-1.257,0,.783.783,0,0,0-.256.6.766.766,0,0,0,.264.614A.929.929,0,0,0,732.224,489.736Z"
                transform="translate(-630.366 -487.313)"
                fill="#fff"
              ></path>
              <path
                id="Path_79"
                data-name="Path 79"
                d="M809.354,489.873a.9.9,0,0,0,.613-.225.808.808,0,0,0,.008-1.174.875.875,0,0,0-.621-.233.856.856,0,0,0-.606.233.762.762,0,0,0-.249.575.771.771,0,0,0,.249.6A.874.874,0,0,0,809.354,489.873Z"
                transform="translate(-688.17 -487.45)"
                fill="#fff"
              ></path>
              <path
                id="Path_80"
                data-name="Path 80"
                d="M797.4,489.873a.873.873,0,0,0,.606-.225.771.771,0,0,0,.249-.6.762.762,0,0,0-.249-.575.9.9,0,0,0-1.211,0,.758.758,0,0,0-.249.575.768.768,0,0,0,.249.6A.871.871,0,0,0,797.4,489.873Z"
                transform="translate(-679.22 -487.45)"
                fill="#fff"
              ></path>
              <path
                id="Path_81"
                data-name="Path 81"
                d="M732.8,504.965a4.368,4.368,0,0,0-2.392-2.392,4.576,4.576,0,0,0-1.793-.349,4.263,4.263,0,0,0-1.74.357,4.452,4.452,0,0,0-2.345,2.407,4.587,4.587,0,0,0-.341,1.771,4.449,4.449,0,0,0,.1.955,5.368,5.368,0,0,0,.272.877h-4.784V501.4h-1.243v7.191h-4.876q.139-.652.241-1.406a11.653,11.653,0,0,0,.1-1.545,4.872,4.872,0,0,0-.365-1.957,3.985,3.985,0,0,0-.986-1.4,3.926,3.926,0,0,0-1.2-.714,4.12,4.12,0,0,0-1.483-.264,5.694,5.694,0,0,0-1.716.233,7.234,7.234,0,0,0-1.5.683l.558,1.087a3.459,3.459,0,0,1,1.15-.582,4.464,4.464,0,0,1,1.242-.18,3.766,3.766,0,0,1,1.212.18,2.788,2.788,0,0,1,.9.489,2.184,2.184,0,0,1,.5.6,3.35,3.35,0,0,1,.3.707,3.825,3.825,0,0,1,.141.754c.02.254.031.5.031.738a7.733,7.733,0,0,1-.125,1.452q-.124.645-.264,1.126h-8.511V501.4h-2.1a6.512,6.512,0,0,0-2.12.319,4.684,4.684,0,0,0-1.568.877,3.671,3.671,0,0,0-.979,1.328,4.186,4.186,0,0,0-.334,1.686,3.576,3.576,0,0,0,.4,1.754,4.312,4.312,0,0,0,.994,1.227h-3.635a5.328,5.328,0,0,1-1.312-.155,2.649,2.649,0,0,1-1.049-.513,2,2,0,0,1-.629-.838,3.387,3.387,0,0,1-.21-1.274v-2.951H690.1V506a4.086,4.086,0,0,0,.07.738,4.409,4.409,0,0,0,.21.754,3.669,3.669,0,0,0,.349.7,2.481,2.481,0,0,0,.489.559,4.527,4.527,0,0,0,.677.482,4.251,4.251,0,0,0,.768.341,4.742,4.742,0,0,0,.932.2,9.832,9.832,0,0,0,1.166.063h30.612a4.494,4.494,0,0,0,1.437,1.033,4.3,4.3,0,0,0,1.809.38,4.551,4.551,0,0,0,3.208-1.282,4.447,4.447,0,0,0,1.327-3.207A4.581,4.581,0,0,0,732.8,504.965Zm-30.169,3.627h-2.719a3.983,3.983,0,0,1-1.366-1.227,3,3,0,0,1-.528-1.754,2.709,2.709,0,0,1,.272-1.219,2.917,2.917,0,0,1,.722-.94,3.268,3.268,0,0,1,1.032-.6,3.584,3.584,0,0,1,1.219-.209h1.368Zm29.02-.551a3.185,3.185,0,0,1-.7,1.032,3.15,3.15,0,0,1-1.04.675,3.443,3.443,0,0,1-1.3.241,3.1,3.1,0,0,1-1.266-.256,3.148,3.148,0,0,1-1.01-.7,3.222,3.222,0,0,1-.668-1.032,3.3,3.3,0,0,1-.241-1.259,3.36,3.36,0,0,1,.241-1.266,3.27,3.27,0,0,1,.661-1.04,3.152,3.152,0,0,1,1-.707,3.072,3.072,0,0,1,1.282-.264,3.377,3.377,0,0,1,1.312.249,3.237,3.237,0,0,1,1.041.683,3.085,3.085,0,0,1,.691,1.032,3.386,3.386,0,0,1,.248,1.313A3.244,3.244,0,0,1,731.656,508.041Z"
                transform="translate(-599.473 -497.239)"
                fill="#fff"
              ></path>
            </g>
            <g id="Group_83" data-name="Group 83" transform="translate(0 20.446)">
              <path
                id="Path_82"
                data-name="Path 82"
                d="M328.818,566.633l4.815,4.95v-4.689h.89v6.814l-4.816-4.927v4.626h-.889Z"
                transform="translate(-328.818 -566.623)"
                fill="#fff"
              ></path>
              <path
                id="Path_83"
                data-name="Path 83"
                d="M357.444,566.673l3.075,6.763h-.931l-.757-1.667h-2.763l-.748,1.667h-.925Zm0,2.033-1.041,2.322H358.5Z"
                transform="translate(-347.979 -566.653)"
                fill="#fff"
              ></path>
              <path
                id="Path_84"
                data-name="Path 84"
                d="M378.4,567.674h3.983v.889h-1.555v5.624h-.879v-5.624H378.4Z"
                transform="translate(-365.962 -567.403)"
                fill="#fff"
              ></path>
              <path
                id="Path_85"
                data-name="Path 85"
                d="M398.207,567.674h.879v6.512h-.879Z"
                transform="translate(-380.801 -567.403)"
                fill="#fff"
              ></path>
              <path
                id="Path_86"
                data-name="Path 86"
                d="M406.34,570.279a3.211,3.211,0,0,1,1.063-2.417,3.591,3.591,0,0,1,2.557-1.007,3.5,3.5,0,0,1,2.51,1.014,3.232,3.232,0,0,1,1.052,2.409,3.356,3.356,0,0,1-1.04,2.495,3.682,3.682,0,0,1-5.093-.008A3.349,3.349,0,0,1,406.34,570.279Zm6.237.04a2.4,2.4,0,0,0-.777-1.815,2.674,2.674,0,0,0-1.912-.738,2.55,2.55,0,0,0-1.848.751,2.431,2.431,0,0,0-.769,1.8,2.38,2.38,0,0,0,.789,1.806,2.73,2.73,0,0,0,1.936.737,2.5,2.5,0,0,0,1.817-.753A2.429,2.429,0,0,0,412.577,570.32Z"
                transform="translate(-386.894 -566.79)"
                fill="#fff"
              ></path>
              <path
                id="Path_87"
                data-name="Path 87"
                d="M439.392,566.633l4.815,4.95v-4.689h.89v6.814l-4.816-4.927v4.626h-.889Z"
                transform="translate(-411.654 -566.623)"
                fill="#fff"
              ></path>
              <path
                id="Path_88"
                data-name="Path 88"
                d="M468.018,566.673l3.075,6.763h-.932l-.757-1.667h-2.763l-.748,1.667h-.925Zm0,2.033-1.041,2.322h2.095Z"
                transform="translate(-430.815 -566.653)"
                fill="#fff"
              ></path>
              <path
                id="Path_89"
                data-name="Path 89"
                d="M493.151,567.674h.879v5.634h2.122v.879h-3Z"
                transform="translate(-451.928 -567.403)"
                fill="#fff"
              ></path>
              <path
                id="Path_90"
                data-name="Path 90"
                d="M524.184,566.593l1.781,6.784h-.871l-1.078-4.145-1.856,4.4L520.3,569.2l-1.093,4.181h-.866l1.781-6.784,2.039,4.853Z"
                transform="translate(-470.797 -566.593)"
                fill="#fff"
              ></path>
              <path
                id="Path_91"
                data-name="Path 91"
                d="M552.267,567.714h.89v4a2.016,2.016,0,0,0,.427,1.375,1.521,1.521,0,0,0,1.208.485A1.6,1.6,0,0,0,556,573.13a1.739,1.739,0,0,0,.432-1.26v-4.156h.89v4.095a2.657,2.657,0,0,1-.683,1.912,2.4,2.4,0,0,1-1.818.715,2.459,2.459,0,0,1-1.857-.725,2.979,2.979,0,0,1-.7-2.142Z"
                transform="translate(-496.215 -567.433)"
                fill="#fff"
              ></path>
              <path
                id="Path_92"
                data-name="Path 92"
                d="M598.179,567.674h3.608v.889h-2.729v1.627h2.729v.879h-2.729v2.24h2.729v.879h-3.608Z"
                transform="translate(-530.609 -567.403)"
                fill="#fff"
              ></path>
              <path
                id="Path_93"
                data-name="Path 93"
                d="M616.62,567.714h.89v4a2.016,2.016,0,0,0,.427,1.375,1.52,1.52,0,0,0,1.208.485,1.6,1.6,0,0,0,1.209-.447,1.739,1.739,0,0,0,.432-1.26v-4.156h.89v4.095a2.657,2.657,0,0,1-.683,1.912,2.4,2.4,0,0,1-1.818.715,2.459,2.459,0,0,1-1.857-.725,2.979,2.979,0,0,1-.7-2.142Z"
                transform="translate(-544.424 -567.433)"
                fill="#fff"
              ></path>
              <path
                id="Path_94"
                data-name="Path 94"
                d="M645.925,566.593l1.781,6.784h-.871l-1.078-4.145-1.856,4.4-1.862-4.431-1.093,4.181h-.866l1.781-6.784,2.039,4.853Z"
                transform="translate(-561.999 -566.593)"
                fill="#fff"
              ></path>
              <path
                id="Path_95"
                data-name="Path 95"
                d="M684.566,570.279a3.211,3.211,0,0,1,1.063-2.417,3.592,3.592,0,0,1,2.557-1.007,3.494,3.494,0,0,1,2.51,1.014,3.232,3.232,0,0,1,1.053,2.409,3.356,3.356,0,0,1-1.04,2.495,3.682,3.682,0,0,1-5.093-.008A3.35,3.35,0,0,1,684.566,570.279Zm6.237.04a2.4,2.4,0,0,0-.777-1.815,2.673,2.673,0,0,0-1.912-.738,2.551,2.551,0,0,0-1.848.751,2.431,2.431,0,0,0-.769,1.8,2.379,2.379,0,0,0,.789,1.806,2.729,2.729,0,0,0,1.936.737,2.5,2.5,0,0,0,1.817-.753A2.43,2.43,0,0,0,690.8,570.32Z"
                transform="translate(-595.326 -566.79)"
                fill="#fff"
              ></path>
              <path
                id="Path_96"
                data-name="Path 96"
                d="M717.538,567.674h3.608v.889h-2.729v1.627h2.729v.879h-2.719v3.118h-.889Z"
                transform="translate(-620.027 -567.403)"
                fill="#fff"
              ></path>
              <path
                id="Path_97"
                data-name="Path 97"
                d="M752.556,572.863l1.022,1.11h-1.161l-.57-.611a4.174,4.174,0,0,1-1.761.431,3.5,3.5,0,0,1-2.546-1.027,3.354,3.354,0,0,1-1.047-2.487,3.214,3.214,0,0,1,1.058-2.417,3.708,3.708,0,0,1,5.075,0,3.174,3.174,0,0,1,1.058,2.39A3.406,3.406,0,0,1,752.556,572.863Zm-1.378-.218-1.429-1.531h1.161l1,1.074a2.511,2.511,0,0,0,.827-1.876,2.4,2.4,0,0,0-.772-1.811,2.672,2.672,0,0,0-1.917-.734,2.556,2.556,0,0,0-1.853.745,2.431,2.431,0,0,0-.764,1.808,2.391,2.391,0,0,0,.781,1.8,2.671,2.671,0,0,0,1.906.74A3.1,3.1,0,0,0,751.178,572.645Z"
                transform="translate(-641.719 -566.79)"
                fill="#fff"
              ></path>
              <path
                id="Path_98"
                data-name="Path 98"
                d="M780.374,566.673l3.075,6.763h-.932l-.756-1.667H779l-.747,1.667h-.925Zm0,2.033-1.042,2.322h2.1Z"
                transform="translate(-664.816 -566.653)"
                fill="#fff"
              ></path>
              <path
                id="Path_99"
                data-name="Path 99"
                d="M801.333,567.674h3.983v.889h-1.555v5.624h-.879v-5.624h-1.549Z"
                transform="translate(-682.802 -567.403)"
                fill="#fff"
              ></path>
              <path
                id="Path_100"
                data-name="Path 100"
                d="M820.951,566.673l3.074,6.763h-.931l-.757-1.667h-2.763l-.748,1.667H817.9Zm0,2.033-1.041,2.322H822Z"
                transform="translate(-695.215 -566.653)"
                fill="#fff"
              ></path>
              <path
                id="Path_101"
                data-name="Path 101"
                d="M846.124,567.674h1.41a2.687,2.687,0,0,1,1.716.523,1.64,1.64,0,0,1,.661,1.342,1.719,1.719,0,0,1-.428,1.155,2.393,2.393,0,0,1-1.336.706l1.892,2.786h-1.02l-1.807-2.679h-.2v2.679h-.889Zm.889.787v2.27q1.969.04,1.969-1.14a.99.99,0,0,0-.23-.677,1.164,1.164,0,0,0-.613-.359A5.052,5.052,0,0,0,847.013,568.461Z"
                transform="translate(-716.357 -567.403)"
                fill="#fff"
              ></path>
              <path
                id="Path_102"
                data-name="Path 102"
                d="M578.794,567.776a1.268,1.268,0,0,0-.778.218.66.66,0,0,0-.3.557.68.68,0,0,0,.261.524,3.6,3.6,0,0,0,.888.5,6.453,6.453,0,0,1,.978.5,2.514,2.514,0,0,1,.574.513,2.008,2.008,0,0,1,.334.593,1.978,1.978,0,0,1,.11.659,1.855,1.855,0,0,1-.591,1.384,1.978,1.978,0,0,1-1.428.572,2.421,2.421,0,0,1-1.445-.447,2.8,2.8,0,0,1-.963-1.342l.889-.251a1.58,1.58,0,0,0,1.487,1.1,1.161,1.161,0,0,0,.808-.29.948.948,0,0,0,.322-.734.994.994,0,0,0-.168-.533,1.523,1.523,0,0,0-.42-.44,4.456,4.456,0,0,0-.8-.4,5.714,5.714,0,0,1-.843-.411,2.158,2.158,0,0,1-.51-.444,1.868,1.868,0,0,1-.315-.513,1.477,1.477,0,0,1-.1-.547,1.529,1.529,0,0,1,.563-1.193,2,2,0,0,1,1.365-.493,2.765,2.765,0,0,1,1.078.231,2.216,2.216,0,0,1,.91.7l-.719.576A1.606,1.606,0,0,0,578.794,567.776Z"
                transform="translate(-514.321 -566.79)"
                fill="#fff"
              ></path>
            </g>
          </g>
        </svg>