<svg width="30" height="31" viewBox="0 0 30 31" fill="none" xmlns="http://www.w3.org/2000/svg">
<g opacity="0.75">
<path d="M25.6132 25.6253C28.4468 22.7917 30.0076 19.0241 30.0076 15.0165C30.0076 7.0801 23.8131 0.563092 16.0051 0.0466513C15.454 0.0102013 15.0049 0.461391 15.0049 1.01368V1.91747C15.0049 2.46975 15.4541 2.91314 16.0046 2.95838C22.2101 3.4684 27.1038 8.68181 27.1038 15.0165C27.1038 18.2484 25.8452 21.2868 23.5599 23.572V23.572C23.3147 23.8173 22.917 23.8173 22.6718 23.572L20.8611 21.7613C20.2311 21.1313 19.1538 21.5776 19.154 22.4686L19.1548 29.0299C19.1548 29.5821 19.6024 30.0297 20.1545 30.0298L26.7167 30.0314C27.6077 30.0316 28.054 28.9543 27.424 28.3243L25.6131 26.5134C25.3679 26.2682 25.3679 25.8706 25.6132 25.6253V25.6253Z" fill="white"/>
<path d="M2.9039 15.0155C2.9039 11.7836 4.1625 8.74525 6.44777 6.45997V6.45997C6.69303 6.21472 7.09066 6.21472 7.33591 6.45997L9.14662 8.27068C9.77663 8.90069 10.8538 8.45441 10.8537 7.56344L10.8529 1.00204C10.8528 0.449896 10.4053 0.00229695 9.85311 0.00216386L3.29092 0.000582118C2.39989 0.000367347 1.95352 1.07764 2.58357 1.70769L4.39444 3.51856C4.63968 3.7638 4.63966 4.1614 4.39441 4.40661V4.40661C1.56072 7.24019 0 11.0078 0 15.0154C0 22.9518 6.19449 29.4688 14.0025 29.9852C14.5536 30.0217 15.0027 29.5705 15.0027 29.0182V28.1144C15.0027 27.5622 14.5534 27.1188 14.003 27.0735C7.79755 26.5636 2.9039 21.3503 2.9039 15.0155Z" fill="white"/>
</g>
</svg>
